<svg xmlns="http://www.w3.org/2000/svg" viewBox="0 0 512 512" width="512" height="512">
  <defs>
    <linearGradient id="blueGrad" x1="0%" y1="0%" x2="100%" y2="100%">
      <stop offset="0%" style="stop-color:#3b82f6;stop-opacity:1" />
      <stop offset="100%" style="stop-color:#2563eb;stop-opacity:1" />
    </linearGradient>
    <linearGradient id="greenGrad" x1="0%" y1="0%" x2="100%" y2="100%">
      <stop offset="0%" style="stop-color:#10b981;stop-opacity:1" />
      <stop offset="100%" style="stop-color:#059669;stop-opacity:1" />
    </linearGradient>
  </defs>
  
  <!-- Rounded square base -->
  <rect width="512" height="480" rx="60" fill="#1e3a8a"/>
  
  <!-- Top-left blue triangular section -->
  <path d="M0,0 L512,0 L0,480 Z" fill="url(#blueGrad)"/>
  
  <!-- Top-right green triangular section -->
  <path d="M512,0 L512,480 L0,480 Z" fill="url(#greenGrad)"/>
  
  <!-- Bottom navy section (overlay to create three-section effect) -->
  <rect x="0" y="240" width="512" height="240" fill="#1e3a8a"/>
  
  <!-- Speech bubble tail pointing down from center bottom -->
  <path d="M256,480 L220,520 L292,520 Z" fill="#1e3a8a"/>
  
  <!-- Bird silhouette in top-right (green section) -->
  <g transform="translate(380, 60)">
    <path d="M0,0 Q-15,-10 -20,5 Q-25,20 -15,30 Q-5,35 5,25 Q10,20 15,25 Q20,30 25,25 Q30,20 25,10 Q20,0 10,5 Q5,0 0,0 Z" 
          fill="#1e3a8a" opacity="0.9"/>
    <circle cx="20" cy="8" r="2.5" fill="#1e3a8a"/>
  </g>
  
  <!-- "Mi" text - large, bold, white, centered -->
  <text x="256" y="180" font-family="Arial, Helvetica, sans-serif" font-size="140" font-weight="900" fill="white" text-anchor="middle" dominant-baseline="middle">Mi</text>
  <circle cx="300" cy="140" r="10" fill="white"/>
  
  <!-- "PRACTICE" text - smaller, white, uppercase, centered -->
  <text x="256" y="260" font-family="Arial, Helvetica, sans-serif" font-size="52" font-weight="700" fill="white" text-anchor="middle" dominant-baseline="middle" letter-spacing="3">PRACTICE</text>
  
  <!-- "COACH" text - smaller, white, uppercase, centered -->
  <text x="256" y="320" font-family="Arial, Helvetica, sans-serif" font-size="52" font-weight="700" fill="white" text-anchor="middle" dominant-baseline="middle" letter-spacing="3">COACH</text>
</svg>
